<?xml version="1.0" standalone="no"?>
<!DOCTYPE svg PUBLIC "-//W3C//DTD SVG 20010904//EN"
 "http://www.w3.org/TR/2001/REC-SVG-20010904/DTD/svg10.dtd">
<svg version="1.0" xmlns="http://www.w3.org/2000/svg"
 width="2183.000000pt" height="2183.000000pt" viewBox="0 0 2183.000000 2183.000000"
 preserveAspectRatio="xMidYMid meet">
<metadata>
Created by potrace 1.16, written by Peter Selinger 2001-2019
</metadata>
<g transform="translate(0.000000,2183.000000) scale(0.100000,-0.100000)"
fill="#000000" stroke="none">
<path d="M10035 21774 c-1975 -73 -3615 -534 -5140 -1444 -443 -265 -1007
-670 -1295 -931 -47 -42 -155 -139 -240 -215 -297 -267 -561 -536 -846 -864
-55 -63 -117 -133 -138 -155 -79 -84 -484 -619 -518 -685 -7 -14 -56 -90 -109
-170 -473 -717 -853 -1497 -1124 -2305 -340 -1012 -514 -2048 -555 -3295 -11
-341 -11 -1239 0 -1580 41 -1247 215 -2283 555 -3295 410 -1222 1075 -2386
1889 -3307 318 -359 552 -598 846 -862 85 -76 193 -173 240 -215 198 -180 572
-462 905 -683 1402 -934 2979 -1478 4755 -1642 493 -46 647 -51 1650 -51 1003
0 1157 5 1650 51 1776 164 3353 708 4755 1642 333 221 707 503 905 683 47 42
155 139 240 215 294 264 528 503 846 862 376 425 750 944 1046 1452 345 591
630 1218 843 1855 340 1012 514 2048 555 3295 11 341 11 1239 0 1580 -19 596
-80 1240 -160 1715 -242 1421 -748 2717 -1519 3885 -53 80 -102 156 -109 170
-34 66 -439 601 -518 685 -21 22 -83 92 -138 155 -285 328 -549 597 -846 864
-85 76 -193 173 -240 215 -288 261 -844 660 -1300 933 -1305 782 -2750 1243
-4360 1392 -459 43 -623 48 -1540 51 -492 1 -935 0 -985 -1z m1635 -1398 c458
-41 839 -97 1240 -182 1623 -346 3136 -1124 4380 -2251 191 -173 586 -573 739
-748 1317 -1507 2110 -3302 2320 -5255 41 -379 46 -494 46 -1025 0 -531 -5
-646 -46 -1025 -215 -1993 -1052 -3856 -2406 -5350 -173 -191 -573 -586 -748
-739 -1507 -1317 -3302 -2110 -5255 -2320 -379 -41 -494 -46 -1025 -46 -531 0
-646 5 -1025 46 -1952 210 -3748 1003 -5255 2320 -175 153 -575 548 -748 739
-1354 1495 -2191 3356 -2406 5350 -41 379 -46 494 -46 1025 0 531 5 646 46
1025 215 1994 1052 3855 2406 5350 281 310 677 687 1012 963 1501 1238 3407
1998 5336 2127 88 6 183 12 210 14 140 10 1062 -4 1225 -18z"/>
</g>
</svg>
